<svg width="161" height="33" viewBox="0 0 161 33" fill="none" xmlns="http://www.w3.org/2000/svg">
<path fill-rule="evenodd" clip-rule="evenodd" d="M11.9924 18.8952C12.2327 19.025 12.5407 19.0122 12.7544 18.8198L12.7621 18.8268C13.4055 18.2508 14.5765 17.2283 15.2349 16.6732C15.4976 16.4577 15.4511 16.1068 15.2456 15.8118C15.1827 15.7246 15.1194 15.639 15.0566 15.554C14.5293 14.8412 14.0285 14.1643 14.0285 12.8067V7.75479C14.0285 7.5809 14.0295 7.40818 14.0305 7.23678C14.0416 5.29776 14.0518 3.52876 12.6106 2.17428C11.3734 0.98072 9.32197 0.55957 7.75301 0.55957C4.68421 0.55957 1.25949 1.71157 0.541401 5.52472C0.464946 5.92969 0.758693 6.14265 1.02281 6.20224L4.1483 6.54247C4.44095 6.52775 4.65275 6.23865 4.70872 5.94661C4.97686 4.63313 6.071 3.99939 7.30086 3.99939C7.96408 3.99939 8.71875 4.24509 9.1109 4.84169C9.51617 5.43892 9.50976 6.23324 9.50401 6.94719C9.50334 7.03041 9.50268 7.11254 9.50268 7.19313V7.61428C9.21251 7.64699 8.90853 7.67799 8.59548 7.70992C6.89101 7.88376 4.91748 8.08503 3.43899 8.73759C1.41788 9.6152 0 11.405 0 14.0375C0 17.4067 2.11146 19.0912 4.82688 19.0912C7.11979 19.0912 8.37379 18.5472 10.1436 16.7343C10.2332 16.8646 10.3136 16.9848 10.3893 17.0979C10.8085 17.7241 11.0849 18.1369 11.9924 18.8952ZM9.5028 11.0793C9.50274 11.0245 9.50268 10.9692 9.50268 10.9136V10.2118C7.17027 10.2118 4.70616 10.7142 4.70616 13.4758C4.70616 14.8794 5.43047 15.8272 6.66728 15.8272C7.57229 15.8272 8.38696 15.266 8.89946 14.3534C9.50514 13.2796 9.50407 12.2699 9.5028 11.0793ZM55.0308 18.8198C54.8172 19.0122 54.5095 19.025 54.2688 18.8952C53.3609 18.1364 53.0846 17.7234 52.6651 17.0964L52.6648 17.0961C52.5895 16.9835 52.5095 16.864 52.4204 16.7343C50.6499 18.5472 49.3959 19.0912 47.1033 19.0912C44.3883 19.0912 42.2761 17.4067 42.2761 14.0375C42.2761 11.405 43.694 9.6152 45.7154 8.73759C47.1937 8.08502 49.1675 7.88374 50.8722 7.7099C51.1853 7.67798 51.4893 7.64698 51.7795 7.61428V7.19313C51.7795 7.11304 51.7801 7.03144 51.7808 6.94875V6.94836C51.7865 6.23411 51.7928 5.43925 51.3873 4.84169C50.9948 4.24509 50.2409 3.99939 49.5769 3.99939C48.3471 3.99939 47.2537 4.63313 46.9848 5.94661C46.9292 6.23865 46.717 6.52775 46.4247 6.54247L43.2989 6.20224C43.0351 6.14265 42.7418 5.92969 42.8178 5.52472C43.5363 1.71157 46.9607 0.55957 50.0298 0.55957C51.5984 0.55957 53.6499 0.98072 54.8867 2.17428C56.328 3.52854 56.3178 5.29718 56.3066 7.23582C56.3056 7.40754 56.3046 7.58058 56.3046 7.75479V12.8067C56.3046 14.1633 56.8052 14.8403 57.332 15.5525L57.3321 15.5527C57.3953 15.6382 57.4589 15.7241 57.522 15.8118C57.7279 16.1068 57.7744 16.4577 57.5114 16.6732C56.8526 17.2283 55.6823 18.2508 55.0381 18.8268L55.0308 18.8198ZM51.7795 10.9136L51.7796 11.0775C51.7808 12.2689 51.7819 13.279 51.1759 14.3534C50.663 15.266 49.8487 15.8272 48.9434 15.8272C47.7065 15.8272 46.9826 14.8794 46.9826 13.4758C46.9826 10.7142 49.4463 10.2118 51.7795 10.2118V10.9136ZM139.785 18.2673C139.785 18.5932 140.052 18.8555 140.387 18.8658H141.797C142.12 18.8448 142.376 18.587 142.376 18.2681L142.377 8.67506C142.377 7.20417 142.527 5.76821 143.31 4.61254C143.919 3.70219 144.946 2.92169 145.961 2.86467C146.94 2.91654 147.874 3.56978 148.395 4.57723C148.846 5.453 148.906 6.60867 148.906 7.58927L148.913 18.2673C148.913 18.5932 149.181 18.8555 149.515 18.8658H150.925C151.22 18.8463 151.458 18.6307 151.499 18.3549V9.27019L151.498 9.10436C151.497 7.50325 151.497 6.24588 152.341 4.8575C153.009 3.74228 154.042 2.92095 155.168 2.86467C156.176 2.9158 157.113 3.60619 157.606 4.71736C158.039 5.69527 158.034 6.81519 158.028 7.8979V7.89926V7.90061V7.90195V7.90328C158.028 8.02092 158.027 8.13812 158.027 8.25465V18.349C158.068 18.6366 158.318 18.8562 158.623 18.8658H160.04C160.364 18.8448 160.619 18.587 160.619 18.2681L160.619 8.25465L160.619 8.07216V8.072C160.62 6.46523 160.622 4.59344 159.897 3.17658C159.114 1.6358 157.609 0.62026 156.044 0.62026L155.915 0.622099L155.799 0.62026C153.586 0.62026 151.906 2.20886 151.015 4.44628C150.444 2.18017 148.905 0.62026 146.802 0.62026L146.683 0.622099L146.559 0.62026C144.576 0.62026 143.008 2.12683 142.166 4.04978V1.62293C142.14 1.31433 141.872 1.07488 141.546 1.07488L140.363 1.07525C140.055 1.09511 139.808 1.32904 139.785 1.62256V18.2673ZM18.3374 18.8614H21.562C21.9059 18.8614 22.1846 18.5947 22.1843 18.2622L22.1854 9.44086L22.1851 9.23159C22.182 7.3277 22.1779 4.85309 24.4131 4.85309C26.4689 4.85309 26.4343 7.05891 26.4061 8.85296V8.85302V8.85308V8.85313V8.85318V8.85324V8.85328V8.85333V8.85338C26.403 9.05569 26.3999 9.25277 26.3999 9.44086L26.4032 18.2637C26.4032 18.5826 26.6585 18.8404 26.9822 18.8614H30.2032C30.5467 18.8614 30.8255 18.5947 30.8255 18.2622V9.44086C30.8255 9.3697 30.8253 9.29597 30.8251 9.2201C30.8229 8.2876 30.82 7.03132 31.1262 6.2541C31.4572 5.41327 32.2704 4.88803 33.0529 4.88803C33.9861 4.88803 34.7085 5.20325 34.9492 6.32398C35.071 6.86158 35.055 8.10796 35.0444 8.93623L35.0443 8.93695C35.0418 9.13353 35.0396 9.30653 35.0396 9.44086L35.0403 18.2637C35.0403 18.5826 35.2957 18.8404 35.6194 18.8614H38.8407C39.1839 18.8614 39.4626 18.5947 39.4626 18.2622L39.4652 7.75994C39.4652 7.50225 39.4696 7.23946 39.474 6.97419C39.5002 5.40079 39.5279 3.7403 38.652 2.54173C37.7488 1.28086 36.2738 0.720674 34.9192 0.720674C33.0225 0.720674 31.2465 1.70127 30.464 3.8026C29.5608 1.70127 28.2962 0.720674 26.2795 0.720674C24.2928 0.720674 22.8178 1.70127 22.035 3.8026H21.9746V1.62955C21.9549 1.3261 21.7025 1.08702 21.3883 1.07083L18.3849 1.07157C18.0411 1.07157 17.7627 1.33787 17.7627 1.67074L17.7605 18.3133C17.785 18.609 18.0305 18.8411 18.3374 18.8614ZM60.2297 4.00821V1.63028C60.2312 1.26835 60.5026 1.02706 60.8293 1.0278L71.4298 1.0267C71.7685 1.0267 72.0407 1.2746 72.0414 1.62734L72.0407 3.66688C72.0381 4.00895 71.7517 4.45548 71.2425 5.16389L65.7516 13.0466C67.7899 12.9987 69.946 13.3051 71.7981 14.3519C72.2155 14.5877 72.3275 14.9375 72.3604 15.2803V17.8175C72.3604 18.1673 71.9799 18.5719 71.5801 18.3615C68.3171 16.6431 63.9873 16.4547 60.3797 18.3821C60.011 18.5796 59.625 18.1809 59.625 17.8311V15.419C59.625 15.0331 59.6324 14.3729 60.0194 13.7844L66.3812 4.60775L60.8421 4.60702C60.5037 4.60702 60.2319 4.36426 60.2297 4.00821ZM60.103 22.12C62.0595 21.8847 66.3892 21.364 67.1626 22.3593C67.9368 23.3557 66.3034 27.4587 65.5721 29.2957L65.5706 29.2996C65.3493 29.855 65.8241 30.079 66.3238 29.6586C69.5718 26.9268 70.411 21.2025 69.7456 20.3757C69.0856 19.5569 63.4075 18.85 59.9422 21.2974C59.4092 21.6737 59.501 22.1927 60.0922 22.1213L60.103 22.12ZM42.2541 32.1322C49.8118 32.1322 58.5891 29.7428 64.6429 25.2507C65.6448 24.5073 64.7866 23.3921 63.7631 23.8291C56.9762 26.7234 49.6 28.1237 42.8899 28.1237C32.9428 28.1237 23.3121 25.3794 15.5243 20.8226C14.8432 20.4238 14.3376 21.1271 14.9042 21.6413C22.1232 28.1954 31.6613 32.1322 42.2541 32.1322ZM81.1966 4.11746C78.8181 4.11746 78.6677 7.37447 78.6677 9.40555L78.6677 9.47619C78.6674 11.5358 78.6667 15.7798 81.1666 15.7798C83.6654 15.7798 83.7854 12.2775 83.7854 10.1412C83.7854 8.74054 83.7254 7.05925 83.304 5.72849C82.9422 4.57281 82.2197 4.11746 81.1966 4.11746ZM81.1666 0.720674C85.9532 0.720674 88.5417 4.85309 88.5417 10.1062C88.5417 15.1839 85.6825 19.2119 81.1666 19.2119C76.4703 19.2119 73.9114 15.0791 73.9114 9.93116C73.9114 4.74789 76.5003 0.720674 81.1666 0.720674ZM91.5362 18.8614H94.7491C95.0926 18.8614 95.3714 18.5947 95.3772 18.2622V9.30072C95.3772 8.17998 95.438 7.16444 95.8894 6.1489C96.2501 5.34339 96.9725 4.81814 97.7554 4.81814C99.8101 4.81814 99.7905 7.08225 99.775 8.8628L99.775 8.86526C99.7737 9.01435 99.7725 9.16004 99.7725 9.30072V18.3369C99.8076 18.6215 100.048 18.8419 100.347 18.8614H103.58C103.898 18.8614 104.161 18.6322 104.198 18.3369V7.86476C104.198 6.2541 104.198 4.01263 103.355 2.68187C102.452 1.24591 101.036 0.720674 99.5918 0.720674C97.364 0.720674 96.1001 1.8061 95.1969 4.08251H95.1362V1.53686C95.0769 1.27865 94.8446 1.08518 94.5633 1.07083L91.5717 1.07157C91.2469 1.07157 90.9795 1.31065 90.9524 1.61483L90.9575 18.2637C90.9575 18.5826 91.2132 18.8404 91.5362 18.8614ZM106.219 17.5409C106.219 16.7034 106.93 16.0244 107.807 16.0244C108.684 16.0244 109.394 16.7034 109.394 17.5409C109.394 18.3781 108.684 19.0567 107.807 19.0567C106.93 19.0567 106.219 18.3781 106.219 17.5409ZM131.006 16.9373C132.511 16.888 133.699 15.9505 134.402 14.3832C135.033 12.9826 135.154 11.3715 135.154 9.83074C135.154 8.14945 134.973 6.39865 134.191 4.9627C133.49 3.7066 132.281 2.91139 131.001 2.86357C129.575 2.91617 128.305 3.885 127.661 5.38274C127.09 6.67856 126.909 8.39479 126.909 9.83074C126.909 11.4414 127.12 13.2974 127.782 14.6984C128.425 16.0255 129.666 16.8899 131.006 16.9373ZM130.669 19.2163C126.093 19.2163 124.046 14.5233 124.046 9.83074C124.046 4.89244 126.455 0.62026 131.06 0.62026L131.179 0.621363L131.304 0.62026C135.789 0.62026 138.017 5.17272 138.017 9.86532C138.017 14.8386 135.548 19.2163 130.912 19.2163L130.794 19.2148L130.669 19.2163ZM119.95 13.0021C119.502 15.1479 118.424 16.8031 116.37 16.8678C113.279 16.7652 112.545 12.6313 112.545 9.79543C112.545 6.85769 113.425 3.03277 116.516 2.93346C118.456 2.99782 119.621 4.61879 119.963 6.65759C120.008 6.94449 120.204 7.20306 120.499 7.24536L121.923 7.26228C122.22 7.22771 122.473 6.99047 122.473 6.71644C121.984 3.0644 119.733 0.62026 116.579 0.62026L116.455 0.621363L116.335 0.62026C111.789 0.62026 109.802 5.3478 109.802 9.97051C109.802 14.6285 111.759 19.2163 116.305 19.2163L116.423 19.2148L116.549 19.2163C119.672 19.2163 121.863 16.7365 122.49 13.0867C122.514 12.7861 122.22 12.5397 121.9 12.5228L120.541 12.5287C120.241 12.5287 120.037 12.7347 119.95 13.0021Z" fill="#A4A4A4"/>
</svg>
