<svg width="33" height="33" viewBox="0 0 33 33" fill="none" xmlns="http://www.w3.org/2000/svg">
<rect opacity="0.01" x="32.5" y="0.5" width="32" height="32" transform="rotate(90 32.5 0.5)" fill="#A1B3F4"/>
<path d="M25.8333 15.1667L10.02 15.1667L14.86 9.35341C15.3313 8.78639 15.2537 7.94469 14.6866 7.47341C14.1196 7.00212 13.2779 7.07973 12.8066 7.64674L6.13998 15.6467C6.09513 15.7104 6.05502 15.7772 6.01998 15.8467C6.01998 15.9134 6.01998 15.9534 5.92665 16.0201C5.86621 16.173 5.83457 16.3357 5.83331 16.5001C5.83457 16.6645 5.86621 16.8272 5.92665 16.9801C5.92665 17.0467 5.92665 17.0867 6.01998 17.1534C6.05502 17.2229 6.09513 17.2898 6.13998 17.3534L12.8066 25.3534C13.0605 25.6581 13.4367 25.8341 13.8333 25.8334C14.1448 25.834 14.4468 25.7255 14.6866 25.5267C14.9593 25.3007 15.1308 24.9754 15.1634 24.6227C15.1959 24.27 15.0867 23.9188 14.86 23.6467L10.02 17.8334L25.8333 17.8334C26.5697 17.8334 27.1666 17.2365 27.1666 16.5001C27.1666 15.7637 26.5697 15.1667 25.8333 15.1667Z" fill="#A1B3F4"/>
</svg>
