<svg width="33" height="33" viewBox="0 0 33 33" fill="none" xmlns="http://www.w3.org/2000/svg">
<rect opacity="0.01" x="32.5" y="0.5" width="32" height="32" transform="rotate(-90 0.5 32.5)" fill="#A1B3F4"/>
<path d="M7.16669 17.8333L22.98 17.8333L18.14 23.6466C17.6687 24.2136 17.7463 25.0553 18.3134 25.5266C18.8804 25.9979 19.7221 25.9203 20.1934 25.3533L26.86 17.3533C26.9049 17.2896 26.945 17.2228 26.98 17.1533C26.98 17.0866 26.98 17.0466 27.0734 16.9799C27.1338 16.827 27.1654 16.6643 27.1667 16.4999C27.1654 16.3355 27.1338 16.1728 27.0734 16.0199C27.0734 15.9533 27.0734 15.9133 26.98 15.8466C26.945 15.7771 26.9049 15.7102 26.86 15.6466L20.1934 7.64659C19.9395 7.34187 19.5633 7.16595 19.1667 7.16659C18.8552 7.16599 18.5532 7.27449 18.3134 7.47326C18.0407 7.69933 17.8692 8.0246 17.8366 8.3773C17.8041 8.73 17.9133 9.08115 18.14 9.35326L22.98 15.1666L7.16669 15.1666C6.43031 15.1666 5.83335 15.7635 5.83335 16.4999C5.83335 17.2363 6.43031 17.8333 7.16669 17.8333Z" fill="#A1B3F4"/>
</svg>
