<svg width="22" height="22" viewBox="0 0 22 22" fill="none" xmlns="http://www.w3.org/2000/svg">
<rect opacity="0.01" width="22" height="22" fill="#1A1A1A"/>
<circle cx="11" cy="11" r="1.375" fill="#1A1A1A"/>
<path d="M14.0158 16.6099L12.8333 15.3816L12.7692 15.3174L11.605 14.1533C11.4203 14.1856 11.2333 14.204 11.0458 14.2083C10.187 14.2205 9.35915 13.888 8.74752 13.2849C8.13589 12.6819 7.79159 11.8588 7.79167 10.9999C7.79593 10.8124 7.81431 10.6255 7.84667 10.4408L6.01334 8.60744L4.58334 7.21411C3.54872 8.18896 2.66238 9.31001 1.95251 10.5416C1.78876 10.8252 1.78876 11.1747 1.95251 11.4583C2.53001 12.4574 5.61917 17.4166 11.0183 17.4166H11.2475C12.2628 17.3865 13.2649 17.1786 14.2083 16.8024L14.0158 16.6099Z" fill="#1A1A1A"/>
<path d="M7.87417 5.28005L10.4408 7.84671C10.6256 7.81435 10.8125 7.79596 11 7.79171C12.7719 7.79171 14.2083 9.22813 14.2083 11C14.2041 11.1876 14.1857 11.3745 14.1533 11.5592L16.61 14.0159L17.38 14.7859C18.4276 13.8136 19.3264 12.6924 20.0475 11.4584C20.2113 11.1748 20.2113 10.8253 20.0475 10.5417C19.4608 9.52421 16.2342 4.41838 10.7525 4.58338C9.73725 4.61349 8.73514 4.82136 7.79167 5.19755L7.87417 5.28005Z" fill="#1A1A1A"/>
<path d="M18.9842 17.6825L17.7925 16.5L15.9592 14.6667L7.2325 5.93082L5.885 4.58332L4.3175 3.01582C4.08498 2.7833 3.74608 2.69249 3.42845 2.7776C3.11082 2.86271 2.86272 3.1108 2.77761 3.42843C2.69251 3.74606 2.78332 4.08497 3.01584 4.31749L5.06917 6.41665L6.67334 7.97499L13.3742 14.6667L13.4383 14.7308L14.6667 15.9592L15.2075 16.5L17.6825 18.9842C17.8546 19.1577 18.0889 19.2553 18.3333 19.2553C18.5778 19.2553 18.8121 19.1577 18.9842 18.9842C19.1577 18.812 19.2553 18.5777 19.2553 18.3333C19.2553 18.0889 19.1577 17.8546 18.9842 17.6825Z" fill="#1A1A1A"/>
</svg>
