<svg width="142" height="29" viewBox="0 0 142 29" fill="none" xmlns="http://www.w3.org/2000/svg">
<path fill-rule="evenodd" clip-rule="evenodd" d="M13.2841 4.79932V0.503362H9.59828C9.59828 0.503362 7.06448 0.350041 5.14481 2.11431C3.22515 3.87886 3.68581 6.0267 3.68581 6.0267V9.93936H-5.81741e-05V14.5425H3.53235V27.6604H8.75368V14.602H12.7467L13.2841 9.93936H8.75368V6.56387C8.75368 4.49241 10.9038 4.79932 10.9038 4.79932H13.2841ZM22.2116 24.0933C24.079 24.0933 25.5929 22.4204 25.5929 20.6409V17.2656C25.5929 15.4861 24.079 13.8135 22.2116 13.8135C20.3439 13.8135 18.8299 15.4861 18.8299 17.2656V20.6409C18.8299 22.4204 20.3439 24.0933 22.2116 24.0933ZM25.874 12.3569V10.0161H30.9068V27.6604H25.8773L25.9119 25.3845C24.5769 27.1654 22.6984 28.274 20.6173 28.274C16.5674 28.274 13.2842 24.6685 13.2842 18.8956C13.2842 13.0847 16.5674 9.51724 20.6173 9.51724C22.6788 9.51724 24.5418 10.6054 25.874 12.3569ZM72.2721 17.1506C72.2721 15.3711 73.786 13.6982 75.6534 13.6982C77.5211 13.6982 79.0351 15.3711 79.0351 17.1506V20.5259C79.0351 22.3054 77.5211 23.978 75.6534 23.978C73.786 23.978 72.2721 22.3054 72.2721 20.5259V17.1506ZM71.991 27.7754V25.4346C73.3232 27.1861 75.1863 28.2743 77.2477 28.2743C81.2976 28.2743 84.5808 24.7068 84.5808 18.8956C84.5808 13.123 81.2976 9.51724 77.2477 9.51724C75.1667 9.51724 73.2881 10.6261 71.9532 12.4067L71.9877 0.754058L66.7574 1.34206V27.695L71.991 27.7754ZM38.2397 19.0084C38.2397 24.2251 42.2712 23.9948 42.2712 23.9948C44.9971 24.0332 45.957 23.0744 45.957 23.0744L47.2239 26.8718C45.0354 28.4827 38.4318 28.751 35.4755 26.0277C32.9174 23.6714 32.918 19.8525 32.9645 18.8657C32.918 17.8789 32.9174 14.0603 35.4755 11.7037C38.4318 8.98032 45.0354 9.24891 47.2239 10.8599L45.957 14.6573C45.957 14.6573 44.9971 13.6982 42.2712 13.7368C42.2712 13.7368 38.2397 13.5065 38.2397 18.7232V19.0084ZM53.2517 17.1888C53.2517 17.1888 52.9828 13.2764 56.5152 13.2764C60.0474 13.2764 59.7785 17.1888 59.7785 17.1888H53.2517ZM64.5778 20.756C64.5778 20.756 66.6893 9.70903 56.592 9.64922C46.4943 9.58915 47.9533 19.6436 47.9533 19.6436C48.1838 25.7424 50.9864 27.507 55.7857 28.0822C60.5848 28.6577 64.2323 26.8165 64.2323 26.8165L63.1188 23.2493C63.1188 23.2493 59.2411 24.4384 56.1697 24.1698C53.0982 23.9015 53.3284 20.756 53.3284 20.756H64.5778ZM94.9405 24C96.8569 24 98.4103 22.3271 98.4103 20.5476V17.1723C98.4103 15.3928 96.8569 13.7202 94.9405 13.7202C93.0243 13.7202 91.4707 15.3928 91.4707 17.1723V20.5476C91.4707 22.3271 93.0243 24 94.9405 24ZM86.2001 19.016C86.2001 13.7202 88.4122 9.75804 94.9854 9.75804C101.261 9.75804 103.771 13.9031 103.771 19.016C103.771 25.0172 99.8375 28.2742 94.9854 28.2742C89.0506 28.2742 86.2001 24.6345 86.2001 19.016ZM117.811 20.5476C117.811 22.3271 116.257 24 114.341 24C112.425 24 110.871 22.3271 110.871 20.5476V17.1723C110.871 15.3928 112.425 13.7202 114.341 13.7202C116.257 13.7202 117.811 15.3928 117.811 17.1723V20.5476ZM114.386 9.75804C107.812 9.75804 105.6 13.7202 105.6 19.016C105.6 24.6345 108.451 28.2742 114.386 28.2742C119.238 28.2742 123.171 25.0172 123.171 19.016C123.171 13.9031 120.661 9.75804 114.386 9.75804ZM135.849 18.854L141.593 27.7374H136.147L130.361 18.7002V27.7374H125.086V1.21459L130.361 0.662202V17.9227L135.722 9.97043H141.338L135.849 18.854Z" fill="#A4A4A4"/>
</svg>
