<svg width="20" height="20" viewBox="0 0 20 20" fill="none" xmlns="http://www.w3.org/2000/svg">
<path opacity="0.01" d="M0 0H20V20H0" fill="#1A1A1A"/>
<path d="M14.5833 11.6667C14.085 13.4002 12.6181 14.6813 10.8333 14.9417C9.45262 15.142 8.04991 14.7708 6.94905 13.9137C5.84819 13.0566 5.14435 11.7877 5 10.4001C4.88812 9.00615 5.36509 7.62909 6.31517 6.603C7.26525 5.57691 8.60161 4.99558 10 5.00006C10.6481 5.00098 11.2901 5.12542 11.8917 5.36673C12.088 5.45486 12.3191 5.37902 12.425 5.19173L13.625 2.9834C13.6772 2.88067 13.6863 2.76139 13.6503 2.65193C13.6143 2.54247 13.5363 2.45183 13.4333 2.40006C10.8137 1.21403 7.76776 1.46236 5.37488 3.05706C2.98199 4.65175 1.58034 7.36745 1.66667 10.2417C1.83685 14.5936 5.29276 18.1 9.64167 18.3334C14.2177 18.5363 18.0996 15.0079 18.3333 10.4334V8.76673C18.3289 8.53847 18.1449 8.3545 17.9167 8.35006H10.4167C10.1865 8.35006 10 8.53661 10 8.76673V11.2667C10 11.4969 10.1865 11.6834 10.4167 11.6834H14.5833" fill="#1A1A1A"/>
</svg>
