<svg width="126" height="38" viewBox="0 0 126 38" fill="none" xmlns="http://www.w3.org/2000/svg">
<path fill-rule="evenodd" clip-rule="evenodd" d="M62.5555 3.07022H58.0078V8.6318H55.5575V12.645H58.0078V26.6924H62.5555V12.645H65.0429V8.6318H62.5555V3.07022ZM51.2953 0.5C49.625 0.5 48.3105 1.80277 48.3105 3.49277C48.3105 5.14674 49.625 6.45022 51.2953 6.45022C53.0354 6.45022 54.3506 5.14674 54.3506 3.49277C54.3506 1.80277 53.0354 0.5 51.2953 0.5V0.5ZM123.583 8.21067C122.803 8.21067 122.198 7.6119 122.198 6.83674C122.198 6.09742 122.803 5.49865 123.583 5.49865C124.33 5.49865 124.933 6.09742 124.933 6.83674C124.933 7.6119 124.33 8.21067 123.583 8.21067V8.21067ZM123.583 5.28853C122.696 5.28853 121.986 5.99236 121.986 6.83674C121.986 7.71696 122.696 8.4215 123.583 8.4215C124.436 8.4215 125.147 7.71696 125.147 6.83674C125.147 5.99236 124.436 5.28853 123.583 5.28853V5.28853ZM70.3342 15.7795C70.9384 13.3857 72.7859 12.0476 75.1659 12.0476C77.5465 12.0476 79.3214 13.3497 79.8907 15.7795H70.3342ZM75.2717 8.06888C69.8026 8.06888 65.6456 12.224 65.6456 17.751C65.6456 23.2073 69.4475 27.2209 75.3432 27.2209C78.6113 27.2209 81.5248 26.0244 83.6562 23.7703L80.601 20.7789C79.1087 22.1874 77.5102 23.2073 75.4497 23.2073C72.9639 23.2073 71.0807 21.7988 70.4417 19.441H84.6142V18.3498C84.6142 12.188 80.779 8.06888 75.2717 8.06888V8.06888ZM115.519 8.06888C113.281 8.06888 111.364 8.91308 110.013 10.3576V0.993703H105.466V26.6924H110.013V16.8706C110.013 14.2659 111.684 12.4695 114.454 12.4695C117.047 12.4695 118.468 14.0535 118.468 16.8706V26.6924H123.015V16.061C123.015 11.0623 119.852 8.06888 115.519 8.06888V8.06888ZM123.228 6.80213V6.2378H123.583C123.868 6.2378 123.975 6.34445 123.975 6.52067C123.975 6.69636 123.868 6.80213 123.583 6.80213H123.228ZM124.187 6.52067C124.187 6.16876 123.938 6.02697 123.583 6.02697H123.015V7.64633H123.228V7.01296H123.583L123.975 7.64633H124.222L123.797 6.97853C124.046 6.9418 124.187 6.80213 124.187 6.52067V6.52067ZM95.9106 12.4349C97.8287 12.4349 99.3923 13.4201 100.6 14.7943L103.761 11.6957C101.986 9.47741 99.1787 8.06888 95.9827 8.06888C90.4771 8.06888 86.1421 12.224 86.1421 17.6443C86.1421 23.0663 90.4771 27.2209 95.9827 27.2209C99.1787 27.2209 101.986 25.812 103.761 23.596L100.6 20.4974C99.4277 21.835 97.8287 22.8554 95.8758 22.8554C92.9621 22.8554 90.724 20.6027 90.724 17.6443C90.724 14.6869 92.9621 12.4349 95.9106 12.4349V12.4349ZM49.057 26.6924H53.6048V8.6318H49.057V26.6924ZM16.163 22.8554C13.2495 22.8554 10.9399 20.5681 10.9399 17.6099C10.9399 14.6869 13.2495 12.4349 16.163 12.4349C19.1109 12.4349 21.4203 14.6869 21.4203 17.6443C21.4203 20.6027 19.1109 22.8554 16.163 22.8554V22.8554ZM16.163 8.06888C10.6561 8.06888 6.32256 12.224 6.32256 17.6443C6.32256 23.0663 10.6561 27.2209 16.163 27.2209C21.6687 27.2209 26.002 23.0663 26.002 17.6443C26.002 12.224 21.6687 8.06888 16.163 8.06888V8.06888ZM0 26.6924H4.54767V0.993703H0V26.6924ZM37.4053 22.8554C34.4932 22.8554 32.1838 20.5681 32.1838 17.6099C32.1838 14.6869 34.4932 12.4349 37.4053 12.4349C40.3539 12.4349 42.6633 14.6869 42.6633 17.6443C42.6633 20.6027 40.3539 22.8554 37.4053 22.8554V22.8554ZM47.0679 12.224V8.6318H40.6727C39.6436 8.2813 38.5427 8.06888 37.4053 8.06888C31.8998 8.06888 27.5665 12.224 27.5665 17.6443C27.5665 23.0663 31.8998 27.2209 37.4053 27.2209C42.911 27.2209 47.2459 23.0663 47.2459 17.6443C47.2459 15.814 46.7476 14.0191 45.7534 12.681L47.0679 12.224ZM37.4053 33.1001C34.4932 33.1001 32.1838 30.8475 32.1838 27.9254H27.5665C27.5665 33.3471 31.8998 37.5 37.4053 37.5C42.911 37.5 47.2459 33.3471 47.2459 27.9254H42.627C42.627 30.8475 40.3174 33.1001 37.4053 33.1001V33.1001Z" fill="#A4A4A4"/>
</svg>
