<svg width="125" height="55" viewBox="0 0 125 55" fill="none" xmlns="http://www.w3.org/2000/svg">
<g clip-path="url(#clip0_1_1389)">
<path fill-rule="evenodd" clip-rule="evenodd" d="M46.729 13.75L46.729 55L29.2056 34.375L11.6823 13.75L46.729 13.75Z" fill="#D2D2D2"/>
<path fill-rule="evenodd" clip-rule="evenodd" d="M0 41.25L0 0L17.5234 20.625L35.0467 41.25L0 41.25Z" fill="#484848"/>
<path d="M71.6915 30V15.4545H73.8861V28.1108H80.477V30H71.6915ZM87.0441 30.2202C86.0214 30.2202 85.1289 29.9858 84.3666 29.517C83.6043 29.0483 83.0124 28.3925 82.591 27.5497C82.1696 26.7069 81.9589 25.7221 81.9589 24.5952C81.9589 23.4635 82.1696 22.474 82.591 21.6264C83.0124 20.7789 83.6043 20.1207 84.3666 19.652C85.1289 19.1832 86.0214 18.9489 87.0441 18.9489C88.0669 18.9489 88.9594 19.1832 89.7217 19.652C90.484 20.1207 91.0758 20.7789 91.4972 21.6264C91.9187 22.474 92.1294 23.4635 92.1294 24.5952C92.1294 25.7221 91.9187 26.7069 91.4972 27.5497C91.0758 28.3925 90.484 29.0483 89.7217 29.517C88.9594 29.9858 88.0669 30.2202 87.0441 30.2202ZM87.0512 28.4375C87.7141 28.4375 88.2633 28.2623 88.699 27.9119C89.1346 27.5616 89.4565 27.0952 89.6649 26.5128C89.8779 25.9304 89.9845 25.2888 89.9845 24.5881C89.9845 23.892 89.8779 23.2528 89.6649 22.6705C89.4565 22.0833 89.1346 21.6122 88.699 21.2571C88.2633 20.902 87.7141 20.7244 87.0512 20.7244C86.3836 20.7244 85.8296 20.902 85.3893 21.2571C84.9537 21.6122 84.6294 22.0833 84.4163 22.6705C84.2079 23.2528 84.1038 23.892 84.1038 24.5881C84.1038 25.2888 84.2079 25.9304 84.4163 26.5128C84.6294 27.0952 84.9537 27.5616 85.3893 27.9119C85.8296 28.2623 86.3836 28.4375 87.0512 28.4375ZM98.7125 34.3182C97.846 34.3182 97.1003 34.2045 96.4753 33.9773C95.855 33.75 95.3484 33.4493 94.9554 33.0753C94.5624 32.7012 94.2688 32.2917 94.0747 31.8466L95.9 31.0938C96.0278 31.3021 96.1983 31.5223 96.4114 31.7543C96.6292 31.991 96.9227 32.1922 97.292 32.358C97.6661 32.5237 98.1467 32.6065 98.7338 32.6065C99.5387 32.6065 100.204 32.41 100.73 32.017C101.255 31.6288 101.518 31.0085 101.518 30.1562V28.0114H101.383C101.255 28.2434 101.07 28.5014 100.829 28.7855C100.592 29.0696 100.266 29.3158 99.8489 29.5241C99.4322 29.7325 98.89 29.8366 98.2224 29.8366C97.3607 29.8366 96.5842 29.6354 95.8929 29.233C95.2063 28.8258 94.6618 28.2268 94.2594 27.4361C93.8616 26.6406 93.6628 25.6629 93.6628 24.5028C93.6628 23.3428 93.8593 22.3485 94.2523 21.5199C94.65 20.6913 95.1945 20.0568 95.8858 19.6165C96.5771 19.1714 97.3607 18.9489 98.2366 18.9489C98.9137 18.9489 99.4606 19.0625 99.8773 19.2898C100.294 19.5123 100.618 19.7727 100.85 20.071C101.087 20.3693 101.269 20.6321 101.397 20.8594H101.553V19.0909H103.634V30.2415C103.634 31.179 103.417 31.9484 102.981 32.5497C102.545 33.151 101.956 33.5961 101.212 33.8849C100.474 34.1738 99.6405 34.3182 98.7125 34.3182ZM98.6912 28.0753C99.302 28.0753 99.8181 27.9332 100.239 27.6491C100.666 27.3603 100.988 26.9484 101.205 26.4134C101.428 25.8736 101.539 25.2273 101.539 24.4744C101.539 23.7405 101.43 23.0942 101.212 22.5355C100.995 21.9768 100.675 21.5412 100.254 21.2287C99.8323 20.9115 99.3114 20.7528 98.6912 20.7528C98.052 20.7528 97.5193 20.9186 97.0932 21.25C96.667 21.5767 96.3451 22.0218 96.1273 22.5852C95.9142 23.1487 95.8077 23.7784 95.8077 24.4744C95.8077 25.1894 95.9166 25.8168 96.1344 26.3565C96.3522 26.8963 96.6741 27.3177 97.1003 27.6207C97.5311 27.9238 98.0614 28.0753 98.6912 28.0753ZM110.716 30.2202C109.694 30.2202 108.801 29.9858 108.039 29.517C107.277 29.0483 106.685 28.3925 106.263 27.5497C105.842 26.7069 105.631 25.7221 105.631 24.5952C105.631 23.4635 105.842 22.474 106.263 21.6264C106.685 20.7789 107.277 20.1207 108.039 19.652C108.801 19.1832 109.694 18.9489 110.716 18.9489C111.739 18.9489 112.632 19.1832 113.394 19.652C114.156 20.1207 114.748 20.7789 115.17 21.6264C115.591 22.474 115.802 23.4635 115.802 24.5952C115.802 25.7221 115.591 26.7069 115.17 27.5497C114.748 28.3925 114.156 29.0483 113.394 29.517C112.632 29.9858 111.739 30.2202 110.716 30.2202ZM110.724 28.4375C111.386 28.4375 111.936 28.2623 112.371 27.9119C112.807 27.5616 113.129 27.0952 113.337 26.5128C113.55 25.9304 113.657 25.2888 113.657 24.5881C113.657 23.892 113.55 23.2528 113.337 22.6705C113.129 22.0833 112.807 21.6122 112.371 21.2571C111.936 20.902 111.386 20.7244 110.724 20.7244C110.056 20.7244 109.502 20.902 109.062 21.2571C108.626 21.6122 108.302 22.0833 108.089 22.6705C107.88 23.2528 107.776 23.892 107.776 24.5881C107.776 25.2888 107.88 25.9304 108.089 26.5128C108.302 27.0952 108.626 27.5616 109.062 27.9119C109.502 28.2623 110.056 28.4375 110.724 28.4375Z" fill="#1A1A1A"/>
</g>
<defs>
<clipPath id="clip0_1_1389">
<rect width="125" height="55" fill="white"/>
</clipPath>
</defs>
</svg>
