<svg width="17" height="17" viewBox="0 0 17 17" fill="none" xmlns="http://www.w3.org/2000/svg">
<rect opacity="0.01" x="0.115662" y="0.0791016" width="16.2694" height="16.2694" fill="#FEFEFE" fillOpacity="0.6"/>
<path fillRule="evenodd" clipRule="evenodd" d="M12.8058 9.16283L14.026 10.3898C14.3393 10.7084 14.4315 11.1836 14.26 11.5962C14.0884 12.0088 13.6865 12.2786 13.2396 12.2811H10.9619V12.5116C10.896 13.9445 9.68341 15.054 8.25036 14.9927C6.81731 15.054 5.60472 13.9445 5.5388 12.5116V12.2811H3.26108C2.81424 12.2786 2.41232 12.0088 2.24077 11.5962C2.06922 11.1836 2.16138 10.7084 2.47473 10.3898L3.69493 9.16283V5.99708C3.69733 4.68276 4.26561 3.43313 5.25457 2.56746C6.24354 1.70179 7.5574 1.30394 8.86047 1.47554C11.1555 1.82729 12.8394 3.81789 12.8058 6.13944V9.16283ZM8.25037 13.6369C8.93057 13.6849 9.52805 13.189 9.60615 12.5116V12.2811H6.89458V12.5116C6.97269 13.189 7.57017 13.6849 8.25037 13.6369Z" fill="#FEFEFE" fillOpacity="0.6"/>
</svg>
