<svg width="13" height="15" viewBox="0 0 13 15" fill="none" xmlns="http://www.w3.org/2000/svg">
<path fill-rule="evenodd" clip-rule="evenodd" d="M11.3051 8.19939L12.5253 9.42638C12.8386 9.74495 12.9308 10.2202 12.7593 10.6328C12.5877 11.0454 12.1858 11.3152 11.7389 11.3177H9.46123V11.5482C9.3953 12.981 8.18271 14.0905 6.74966 14.0293C5.31661 14.0905 4.10402 12.981 4.03809 11.5482V11.3177H1.76038C1.31354 11.3152 0.911619 11.0454 0.740069 10.6328C0.568519 10.2202 0.660677 9.74495 0.974025 9.42638L2.19423 8.19939V5.03364C2.19663 3.71932 2.76491 2.46969 3.75387 1.60402C4.74284 0.738353 6.0567 0.340496 7.35976 0.512101C9.65475 0.863849 11.3387 2.85445 11.3051 5.176V8.19939ZM6.74966 12.6735C7.42986 12.7215 8.02734 12.2256 8.10544 11.5482V11.3177H5.39387V11.5482C5.47198 12.2256 6.06946 12.7215 6.74966 12.6735Z" fill="#A4A4A4"/>
</svg>
