<svg width="17" height="17" viewBox="0 0 17 17" fill="none" xmlns="http://www.w3.org/2000/svg">
<rect opacity="0.01" x="0.115662" y="0.00146484" width="16.2694" height="16.2694" fill="#FEFEFE" fillOpacity="0.6"/>
<path d="M7.64707 15.593C7.56846 15.5929 7.49047 15.5791 7.41658 15.5523C7.12325 15.4449 6.94129 15.151 6.97595 14.8405L7.49793 10.0343H3.50515C3.25418 10.0347 3.02355 9.89637 2.90567 9.67481C2.78779 9.45326 2.80196 9.1847 2.9425 8.97678L8.29106 0.97766C8.46511 0.720102 8.79203 0.613923 9.0842 0.720061C9.3645 0.824124 9.54352 1.09954 9.52483 1.39795L9.00285 6.2381H12.9956C13.2466 6.23772 13.4772 6.37602 13.5951 6.59758C13.713 6.81914 13.6988 7.08769 13.5583 7.29561L8.20972 15.2947C8.08345 15.4815 7.87255 15.5933 7.64707 15.593Z" fill="#FEFEFE" fillOpacity="0.6"/>
</svg>
