<svg width="17" height="17" viewBox="0 0 17 17" fill="none" xmlns="http://www.w3.org/2000/svg">
<rect opacity="0.01" x="0.115662" y="0.462646" width="16.2694" height="16.2694" fill="#FEFEFE"/>
<path d="M6.2167 2.49634H3.50514C2.75636 2.49634 2.14935 3.10334 2.14935 3.85212V6.56369C2.14935 7.31247 2.75636 7.91947 3.50514 7.91947H6.2167C6.96548 7.91947 7.57249 7.31247 7.57249 6.56369V3.85212C7.57249 3.10334 6.96548 2.49634 6.2167 2.49634Z" fill="#FEFEFE"/>
<path d="M12.9956 2.49634H10.284C9.53526 2.49634 8.92825 3.10334 8.92825 3.85212V6.56369C8.92825 7.31247 9.53526 7.91947 10.284 7.91947H12.9956C13.7444 7.91947 14.3514 7.31247 14.3514 6.56369V3.85212C14.3514 3.10334 13.7444 2.49634 12.9956 2.49634Z" fill="#FEFEFE"/>
<path d="M6.2167 9.27527H3.50514C2.75636 9.27527 2.14935 9.88227 2.14935 10.6311V13.3426C2.14935 14.0914 2.75636 14.6984 3.50514 14.6984H6.2167C6.96548 14.6984 7.57249 14.0914 7.57249 13.3426V10.6311C7.57249 9.88227 6.96548 9.27527 6.2167 9.27527Z" fill="#FEFEFE"/>
<path d="M12.9956 9.27527H10.284C9.53526 9.27527 8.92825 9.88227 8.92825 10.6311V13.3426C8.92825 14.0914 9.53526 14.6984 10.284 14.6984H12.9956C13.7444 14.6984 14.3514 14.0914 14.3514 13.3426V10.6311C14.3514 9.88227 13.7444 9.27527 12.9956 9.27527Z" fill="#FEFEFE"/>
</svg>
