<svg width="17" height="17" viewBox="0 0 17 17" fill="none" xmlns="http://www.w3.org/2000/svg">
<g id="pricetags">
<rect id="Rectangle" opacity="0.01" x="0.115662" y="0.617859" width="16.2694" height="16.2694" fill="#FEFEFE" fillOpacity="0.6"/>
<path id="Shape" fillRule="evenodd" clipRule="evenodd" d="M10.3179 4.12258L14.67 8.46787C15.1501 8.94938 15.1501 9.72854 14.67 10.2101L9.70782 15.1722C9.47726 15.4017 9.16541 15.5308 8.84012 15.5315C8.51278 15.5311 8.1987 15.4021 7.96564 15.1722L3.62036 10.8202C3.50885 10.7093 3.43936 10.5631 3.42377 10.4066L2.82722 4.06835C2.80873 3.86733 2.8808 3.66852 3.02381 3.52604C3.16629 3.38303 3.3651 3.31096 3.56613 3.32945L9.90441 3.926C10.0609 3.94158 10.2071 4.01108 10.3179 4.12258ZM6.84381 8.68885C7.22393 8.84616 7.66139 8.75893 7.9521 8.46786V8.4543C8.34332 8.06041 8.34332 7.42461 7.9521 7.03073C7.66139 6.73965 7.22393 6.65242 6.84381 6.80973C6.46368 6.96705 6.2158 7.3379 6.2158 7.74929C6.2158 8.16068 6.46368 8.53153 6.84381 8.68885Z" fill="#FEFEFE" fillOpacity="0.6"/>
</g>
</svg>
