<svg width="17" height="17" viewBox="0 0 17 17" fill="none" xmlns="http://www.w3.org/2000/svg">
<rect opacity="0.01" x="0.115662" y="0.540283" width="16.2694" height="16.2694" fill="#FEFEFE" fillOpacity="0.6"/>
<path fillRule="evenodd" clipRule="evenodd" d="M11.85 11.3187L14.1548 13.6168C14.2831 13.7441 14.3553 13.9173 14.3553 14.0981C14.3553 14.2788 14.2831 14.4521 14.1548 14.5794C14.0275 14.7077 13.8543 14.7799 13.6735 14.7799C13.4928 14.7799 13.3195 14.7077 13.1922 14.5794L10.8942 12.2745C9.94677 13.0182 8.77687 13.4217 7.57249 13.4202C4.57737 13.4202 2.14935 10.9922 2.14935 7.99705C2.14935 5.00193 4.57737 2.57391 7.57249 2.57391C10.5676 2.57391 12.9956 5.00193 12.9956 7.99705C12.9971 9.20143 12.5936 10.3713 11.85 11.3187ZM7.57248 3.92973C5.32614 3.92973 3.50513 5.75074 3.50513 7.99708C3.50513 10.2434 5.32614 12.0644 7.57248 12.0644C9.81881 12.0644 11.6398 10.2434 11.6398 7.99708C11.6398 5.75074 9.81881 3.92973 7.57248 3.92973Z" fill="#FEFEFE" fillOpacity="0.6"/>
</svg>
