<svg width="11" height="11" viewBox="0 0 11 11" fill="none" xmlns="http://www.w3.org/2000/svg">
<path fillRule="evenodd" clipRule="evenodd" d="M8.46966 7.58824L10.3904 9.50328C10.4973 9.60935 10.5575 9.75374 10.5575 9.90437C10.5575 10.055 10.4973 10.1994 10.3904 10.3055C10.2843 10.4124 10.1399 10.4726 9.98927 10.4726C9.83864 10.4726 9.69425 10.4124 9.58818 10.3055L7.67314 8.38476C6.88365 9.00446 5.90873 9.34071 4.90508 9.33946C2.40915 9.33946 0.385803 7.31611 0.385803 4.82018C0.385803 2.32425 2.40915 0.300903 4.90508 0.300903C7.40101 0.300903 9.42436 2.32425 9.42436 4.82018C9.42561 5.82383 9.08936 6.79875 8.46966 7.58824ZM4.90509 1.43071C3.03314 1.43071 1.51563 2.94823 1.51563 4.82017C1.51563 6.69212 3.03314 8.20963 4.90509 8.20963C6.77703 8.20963 8.29454 6.69212 8.29454 4.82017C8.29454 2.94823 6.77703 1.43071 4.90509 1.43071Z" fill="#1A1A1A"/>
</svg>
