<svg width="24" height="24" viewBox="0 0 24 24" fill="none" xmlns="http://www.w3.org/2000/svg">
<path opacity="0.01" d="M0 0H24V24H0" fill="#1A1A1A"/>
<path d="M8.08 20C11.0674 20.1 13.9683 18.9876 16.1229 16.9159C18.2775 14.8441 19.5028 11.9891 19.52 9.00005C20.1977 8.16146 20.7008 7.19588 21 6.16005C21.0456 5.99287 20.9889 5.81449 20.855 5.70441C20.7212 5.59433 20.5352 5.57305 20.38 5.65005C19.653 5.99998 18.7839 5.84707 18.22 5.27005C17.5108 4.49338 16.5172 4.03701 15.466 4.00498C14.4147 3.97295 13.3952 4.36799 12.64 5.10005C11.599 6.10824 11.1625 7.58832 11.49 9.00005C8.14 9.20005 5.84 7.61005 4 5.43005C3.88705 5.30213 3.70915 5.25312 3.54663 5.30512C3.3841 5.35713 3.26771 5.50032 3.25 5.67005C2.53212 9.65221 4.36687 13.6607 7.85 15.72C6.70964 17.0279 5.10821 17.8447 3.38 18C3.19018 18.0315 3.04138 18.1802 3.00974 18.37C2.97811 18.5598 3.07065 18.7487 3.24 18.84C4.74352 19.5914 6.39923 19.9882 8.08 20Z" fill="#1A1A1A"/>
</svg>
