<svg width="142" height="37" viewBox="0 0 142 37" fill="none" xmlns="http://www.w3.org/2000/svg">
<path fill-rule="evenodd" clip-rule="evenodd" d="M139.132 0.248779H108.514C107.051 0.248779 105.862 1.40589 105.862 2.83187V33.5111C105.862 34.9385 107.051 36.0971 108.514 36.0971H139.132C140.598 36.0971 141.792 34.9385 141.792 33.5111V2.83187C141.792 1.40589 140.598 0.248779 139.132 0.248779ZM113.855 5.18424C115.559 5.18424 116.943 6.56565 116.943 8.26622C116.943 9.96828 115.559 11.3497 113.855 11.3497C112.147 11.3497 110.764 9.96828 110.764 8.26622C110.764 6.56565 112.147 5.18424 113.855 5.18424ZM116.518 30.7963H111.189V13.6883H116.518V30.7963ZM119.861 13.6883H124.972V16.026H125.043C125.755 14.6809 127.493 13.2631 130.086 13.2631C135.482 13.2631 136.478 16.8067 136.478 21.4125V30.7964H131.153V22.4767C131.153 20.4929 131.116 17.9409 128.384 17.9409C125.611 17.9409 125.185 20.102 125.185 22.3333V30.7964H119.861V13.6883ZM20.916 5.17657C22.6218 5.17657 24.0064 6.55799 24.0064 8.25855C24.0064 9.96211 22.6218 11.3395 20.916 11.3395C19.2121 11.3395 17.8276 9.96211 17.8276 8.25855C17.8276 6.55799 19.2121 5.17657 20.916 5.17657ZM23.5797 30.7887V13.6807H18.2522V30.7887H23.5797ZM0 5.55066V30.7956H15.8042V25.6929H5.54277V5.55066H0ZM51.1732 5.5489H45.848V30.7955H51.1732V22.3385H51.2426L56.8947 30.7955H63.5889L56.7482 21.5941L63.7349 13.6731H57.206L51.1732 20.6369V5.5489ZM26.526 13.6831H31.6396V16.0217H31.7109C32.4205 14.6752 34.1611 13.2584 36.7532 13.2584C42.152 13.2584 43.146 16.8015 43.146 21.4068V30.7886H37.8188V22.4705C37.8188 20.4856 37.7822 17.9354 35.0473 17.9354C32.2781 17.9354 31.8532 20.0973 31.8532 22.3286V30.7886H26.526V13.6831ZM72.1763 31.2301C74.9481 31.2301 77.752 29.9889 79.4569 27.827L75.7285 25.0985C74.8403 26.3032 73.6693 27.1895 71.9285 27.1895C69.8684 27.1895 68.3389 25.8785 67.916 23.8585H80.2743V22.1931C80.2743 16.7017 77.1522 13.1587 72.1763 13.1587C66.8506 13.1587 62.5888 16.7017 62.5888 22.1931C62.5888 27.6851 66.8506 31.2301 72.1763 31.2301ZM71.6783 16.9855C73.598 16.9855 74.9827 18.474 74.9481 20.2458H67.916C68.0565 18.5801 69.3359 16.9855 71.6783 16.9855ZM100.535 30.7862H95.633V28.5175H95.5636C94.7442 29.7573 92.6863 31.2111 90.2706 31.2111C85.1552 31.2111 81.7821 27.5275 81.7821 22.318C81.7821 17.5339 84.765 13.1402 89.6655 13.1402C91.8694 13.1402 93.9286 13.7422 95.1362 15.4076H95.2056V5.54877H100.535V30.7862ZM91.3689 17.8177C88.7074 17.8177 87.1096 19.5907 87.1096 22.1753C87.1096 24.7641 88.7074 26.5334 91.3689 26.5334C94.0341 26.5334 95.633 24.7641 95.633 22.1753C95.633 19.5907 94.0341 17.8177 91.3689 17.8177Z" fill="#A4A4A4"/>
</svg>
