<svg width="12" height="12" viewBox="0 0 12 12" fill="none" xmlns="http://www.w3.org/2000/svg">
<path d="M0.75 6.75002L9.645 6.75002L6.9225 10.02C6.6574 10.339 6.70106 10.8124 7.02 11.0775C7.33894 11.3426 7.8124 11.299 8.0775 10.98L11.8275 6.48002C11.8527 6.44423 11.8753 6.40663 11.895 6.36752C11.895 6.33002 11.895 6.30752 11.9475 6.27002C11.9815 6.18403 11.9993 6.09249 12 6.00002C11.9993 5.90755 11.9815 5.81601 11.9475 5.73002C11.9475 5.69252 11.9475 5.67002 11.895 5.63252C11.8753 5.59342 11.8527 5.55581 11.8275 5.52002L8.0775 1.02002C7.93473 0.848615 7.72307 0.749658 7.5 0.75002C7.32476 0.749678 7.15493 0.81071 7.02 0.922521C6.86662 1.04968 6.77014 1.23265 6.75185 1.43104C6.73356 1.62944 6.79496 1.82696 6.9225 1.98002L9.645 5.25002L0.75 5.25002C0.335786 5.25002 0 5.58581 0 6.00002C0 6.41423 0.335786 6.75002 0.75 6.75002Z" fill="#1A1A1A"/>
</svg>
