<svg width="104" height="20" viewBox="0 0 104 20" fill="none" xmlns="http://www.w3.org/2000/svg">
<path fill-rule="evenodd" clip-rule="evenodd" d="M35.2265 0.882043H29.6492V8.13021H23.8408V0.882043H18.2614V19.1192H23.8408V11.9447H29.6492V19.1192H35.2265V0.882043ZM54.6375 15.4558V0.882043H49.0577V19.1192H59.1461L59.9854 15.4558H54.6375ZM39.3538 19.1192H44.932V0.882043H39.3538V19.1192ZM61.9734 19.1192H67.5506V0.882043H61.9734V19.1192ZM95.0596 5.5352C95.0596 4.54421 96.054 4.08507 97.6578 4.08507C99.4152 4.08507 101.327 4.46711 102.624 5.00335L102.168 1.03436C100.715 0.729727 99.4152 0.5 97.0472 0.5C92.5386 0.5 89.4823 2.27483 89.4823 5.9956C89.4823 12.4029 98.1959 11.1073 98.1959 14.0828C98.1959 15.2264 97.3525 15.8353 95.2885 15.8353C93.4579 15.8353 90.6272 15.2264 88.948 14.3874L89.5599 18.5861C91.2401 19.1954 93.5321 19.5 95.3671 19.5C100.027 19.5 103.849 17.9734 103.849 13.3939C103.849 7.29153 95.0596 8.4361 95.0596 5.5352ZM79.3214 14.7694C84.5145 14.7694 87.8009 12.097 87.8009 7.44385C87.8009 2.33124 84.2867 0.5 78.5543 0.5C76.3393 0.5 73.6631 0.652316 71.7527 0.882043V19.1192H77.3337V14.7694H79.3214ZM82.2975 7.52001C82.2975 9.88529 81.1542 11.4877 78.2493 11.4877H77.3337V3.95375C77.6576 3.93494 77.9629 3.93494 78.2493 3.93494C80.9993 3.93494 82.2975 5.23088 82.2975 7.52001ZM7.56489 14.7694C12.7605 14.7694 16.0457 12.097 16.0457 7.44385C16.0457 2.33124 12.5302 0.5 6.80067 0.5C4.58372 0.5 1.90913 0.652316 0 0.882043V19.1192H5.57692V14.7694H7.56489ZM10.546 7.52001C10.546 9.88529 9.39894 11.4877 6.49536 11.4877H5.57692V3.95375C5.90359 3.93494 6.2089 3.93494 6.49536 3.93494C9.24409 3.93494 10.546 5.23088 10.546 7.52001Z" fill="#A4A4A4"/>
</svg>
